<?xml version="1.0" encoding="iso-8859-1"?>
<!-- Generator: Adobe Illustrator 19.0.0, SVG Export Plug-In . SVG Version: 6.00 Build 0)  -->
<svg version="1.1" id="Layer_1" xmlns="http://www.w3.org/2000/svg" xmlns:xlink="http://www.w3.org/1999/xlink" x="0px" y="0px"
	 viewBox="0 0 474.736 474.736" style="enable-background:new 0 0 474.736 474.736;" xml:space="preserve">
<circle style="fill:#9F77AA;" cx="237.368" cy="237.368" r="237.368"/>
<path style="fill:#828282;" d="M218.163,396.202l-3.456,7.627c0,9.303,10.423,20.66,28.579,20.66
	c18.167,0,30.375-11.353,30.375-20.66l-3.456-7.627H218.163z"/>
<path style="fill:#C0C0C0;" d="M207.11,380.782l-4.918,9.85c0,12.009,14.839,26.664,40.708,26.664
	c25.881,0,43.276-14.655,43.276-26.664l-4.918-9.85H207.11z"/>
<path style="fill:#939292;" d="M203.062,367.491l-5.457,10.918c0,13.321,16.462,29.58,45.161,29.58
	c28.703,0,47.998-16.259,47.998-29.58l-5.457-10.918H203.062z"/>
<path style="fill:#C0C0C0;" d="M201.63,355.482l-5.652,11.304c0,13.786,17.043,30.607,46.739,30.607
	c29.704,0,49.674-16.822,49.674-30.607l-5.648-11.304H201.63z"/>
<path style="fill:#A19F9F;" d="M201.63,344.186l-5.652,11.301c0,13.786,17.043,30.611,46.739,30.611
	c29.704,0,49.674-16.825,49.674-30.611l-5.648-11.301H201.63z"/>
<path style="fill:#C0C0C0;" d="M266.585,313.579h-44.797c-14.254,0-25.81,11.173-25.81,24.955v5.652
	c0,13.786,17.043,30.611,46.739,30.611c29.704,0,49.674-16.825,49.674-30.611v-5.652
	C292.387,324.752,280.835,313.579,266.585,313.579z"/>
<path style="fill:#F4E028;" d="M288.841,330.895c0-53.448,76.874-63.272,76.874-149.823c0-67.661-54.801-122.466-122.458-122.481
	c-67.665,0.034-122.458,54.82-122.458,122.492c0,83.83,78.504,95.36,78.504,149.913
	C199.306,366.112,288.841,367.019,288.841,330.895z"/>
<path style="fill:#F6E568;" d="M142.024,190.164c-18.178-18.171,1.78-68.489,19.947-86.664
	c18.178-18.175,62.174-35.42,80.345-17.245C260.49,104.426,160.198,208.339,142.024,190.164z"/>
<path style="fill:#F3E375;" d="M276.416,263.403c-1.574-3.636-5.034-2.343-5.034-2.343c-9.824,3.07-19.805,29.396-25.813,48.336
	c-6.008-18.943-15.986-45.266-25.813-48.336c0,0-3.456-1.293-5.034,2.343c-1.484,3.422,1.319,5.487,2.376,6.147
	c5.997,3.726,14.625,23.864,22.226,49.794c0.765,2.582,1.578,35.528,2.309,38.22c0,0,2.159,0.146,3.894,0.146
	c2.163,0,4.134-0.199,4.134-0.199c0.746-2.736,1.417-35.686,2.193-38.324c7.59-25.855,16.199-45.922,22.185-49.64
	C275.097,268.89,277.904,266.825,276.416,263.403z"/>
<g>
</g>
<g>
</g>
<g>
</g>
<g>
</g>
<g>
</g>
<g>
</g>
<g>
</g>
<g>
</g>
<g>
</g>
<g>
</g>
<g>
</g>
<g>
</g>
<g>
</g>
<g>
</g>
<g>
</g>
</svg>
